<svg width="20" height="20" viewBox="0 0 20 20" fill="none" xmlns="http://www.w3.org/2000/svg">
<path fill-rule="evenodd" clip-rule="evenodd" d="M15.8333 15V10C15.8333 9.54 16.2058 9.16667 16.6667 9.16667C17.1275 9.16667 17.5 9.54 17.5 10V15C17.5 16.3783 16.3783 17.5 15 17.5H5C3.62167 17.5 2.5 16.3783 2.5 15V5C2.5 3.62167 3.62167 2.5 5 2.5H10C10.4608 2.5 10.8333 2.87333 10.8333 3.33333C10.8333 3.79333 10.4608 4.16667 10 4.16667H5C4.54 4.16667 4.16667 4.54083 4.16667 5V15C4.16667 15.4592 4.54 15.8333 5 15.8333H15C15.46 15.8333 15.8333 15.4592 15.8333 15ZM14.6484 4.17333L13.3293 4.16667C12.8684 4.16417 12.4976 3.78917 12.5001 3.32917C12.5026 2.87 12.8751 2.5 13.3334 2.5H13.3376L16.6684 2.51667C17.1268 2.51917 17.4976 2.89083 17.4976 3.34917L17.5001 6.66583C17.5001 7.12667 17.1276 7.5 16.6676 7.5H16.6668C16.2068 7.5 15.8334 7.1275 15.8334 6.6675L15.8326 5.34583L10.5893 10.5892C10.4268 10.7517 10.2134 10.8333 10.0001 10.8333C9.78677 10.8333 9.57344 10.7517 9.41094 10.5892C9.08511 10.2633 9.08511 9.73667 9.41094 9.41083L14.6484 4.17333Z" fill="#1A63FF"/>
</svg>
