<svg width="116" height="116" viewBox="0 0 116 116" fill="none" xmlns="http://www.w3.org/2000/svg">
<path d="M67.7167 10.0168H29.25C26.6995 10.0168 24.2535 11.03 22.45 12.8334C20.6465 14.6369 19.6333 17.083 19.6333 19.6335V96.5668C19.6333 99.1173 20.6465 101.563 22.45 103.367C24.2535 105.17 26.6995 106.183 29.25 106.183H86.95C89.5005 106.183 91.9465 105.17 93.75 103.367C95.5535 101.563 96.5667 99.1173 96.5667 96.5668V38.8668L67.7167 10.0168Z" stroke="#ACACAC" stroke-width="9.61667" stroke-linecap="round" stroke-linejoin="round"/>
<path d="M67.7166 10.0168V38.8668H96.5666" stroke="#ACACAC" stroke-width="9.61667" stroke-linecap="round" stroke-linejoin="round"/>
<path d="M77.3333 62.9086H38.8667" stroke="#ACACAC" stroke-width="9.61667" stroke-linecap="round" stroke-linejoin="round"/>
<path d="M77.3333 82.1418H38.8667" stroke="#ACACAC" stroke-width="9.61667" stroke-linecap="round" stroke-linejoin="round"/>
<path d="M48.4833 43.6753H43.675H38.8667" stroke="#ACACAC" stroke-width="9.61667" stroke-linecap="round" stroke-linejoin="round"/>
</svg>
