<svg width="12" height="14" viewBox="0 0 12 14" fill="none" xmlns="http://www.w3.org/2000/svg">
<path fill-rule="evenodd" clip-rule="evenodd" d="M1.17825 0.592773C0.994917 0.592773 0.826501 0.693776 0.740162 0.855501C0.653823 1.01723 0.663607 1.21336 0.765613 1.36569L4.8094 7.40445V13.0962C4.8094 13.2753 4.90585 13.4405 5.06181 13.5286C5.21777 13.6167 5.40908 13.6139 5.56246 13.5214L7.19553 12.5366C7.34457 12.4467 7.43569 12.2854 7.43569 12.1114V7.40509L11.4789 1.36564C11.5808 1.21331 11.5906 1.01718 11.5043 0.855474C11.4179 0.693764 11.2495 0.592773 11.0662 0.592773H1.17825ZM5.71864 6.97722L2.10846 1.58598H10.1361L6.52642 6.97794C6.47169 7.05968 6.44248 7.15584 6.44248 7.25421V11.8309L5.80261 12.2168V7.25353C5.80261 7.15514 5.77339 7.05897 5.71864 6.97722Z" fill="#4E6FB6"/>
</svg>
