<svg width="20" height="22" viewBox="0 0 20 22" fill="none" xmlns="http://www.w3.org/2000/svg">
<rect x="8.76489" width="1.75299" height="9.64142" rx="0.876493" fill="#0035A3"/>
<path fill-rule="evenodd" clip-rule="evenodd" d="M6.13545 4.94032C6.13545 4.18759 5.37732 3.67661 4.72991 4.06061C1.89823 5.7402 0 8.82792 0 12.359C0 17.6838 4.31661 22.0004 9.64142 22.0004C14.9662 22.0004 19.2828 17.6838 19.2828 12.359C19.2828 8.82792 17.3846 5.7402 14.5529 4.06061C13.9055 3.67661 13.1474 4.18759 13.1474 4.94032C13.1474 5.33952 13.3733 5.70023 13.7107 5.91367C15.8454 7.26425 17.2628 9.64609 17.2628 12.359C17.2628 16.5682 13.8506 19.9804 9.64142 19.9804C5.43223 19.9804 2.02 16.5682 2.02 12.359C2.02 9.64609 3.43745 7.26425 5.57216 5.91367C5.90951 5.70023 6.13545 5.33952 6.13545 4.94032Z" fill="#0035A3"/>
</svg>
