<svg width="25" height="24" viewBox="0 0 25 24" fill="none" xmlns="http://www.w3.org/2000/svg">
<g clip-path="url(#clip0_2546:13137)">
<path d="M12.3507 15C14.0076 15 15.3507 13.6569 15.3507 12C15.3507 10.3431 14.0076 9 12.3507 9C10.6939 9 9.35071 10.3431 9.35071 12C9.35071 13.6569 10.6939 15 12.3507 15Z" stroke="#0447F1" stroke-width="1.99861" stroke-linecap="round" stroke-linejoin="round"/>
<path d="M19.75 14.999C19.6169 15.3006 19.5772 15.6352 19.636 15.9596C19.6948 16.284 19.8494 16.5833 20.08 16.819L20.14 16.879C20.3259 17.0648 20.4734 17.2853 20.5741 17.5281C20.6747 17.7709 20.7266 18.0312 20.7266 18.294C20.7266 18.5569 20.6747 18.8171 20.5741 19.0599C20.4734 19.3027 20.3259 19.5233 20.14 19.709C19.9542 19.895 19.7337 20.0425 19.4909 20.1431C19.2481 20.2438 18.9878 20.2956 18.725 20.2956C18.4621 20.2956 18.2019 20.2438 17.9591 20.1431C17.7163 20.0425 17.4957 19.895 17.31 19.709L17.25 19.649C17.0143 19.4185 16.715 19.2638 16.3906 19.205C16.0662 19.1462 15.7316 19.1859 15.43 19.319C15.1342 19.4458 14.882 19.6563 14.7043 19.9246C14.5266 20.1929 14.4313 20.5072 14.43 20.829V20.999C14.43 21.5295 14.2193 22.0382 13.8442 22.4132C13.4691 22.7883 12.9604 22.999 12.43 22.999C11.8995 22.999 11.3908 22.7883 11.0158 22.4132C10.6407 22.0382 10.43 21.5295 10.43 20.999V20.909C10.4222 20.578 10.3151 20.257 10.1225 19.9877C9.92988 19.7184 9.66071 19.5133 9.34998 19.399C9.04836 19.2659 8.71378 19.2262 8.38939 19.285C8.06499 19.3438 7.76566 19.4985 7.52998 19.729L7.46998 19.789C7.28423 19.975 7.06365 20.1225 6.82086 20.2231C6.57806 20.3238 6.31781 20.3756 6.05498 20.3756C5.79215 20.3756 5.53189 20.3238 5.2891 20.2231C5.0463 20.1225 4.82572 19.975 4.63998 19.789C4.45402 19.6033 4.30651 19.3827 4.20586 19.1399C4.10521 18.8971 4.0534 18.6369 4.0534 18.374C4.0534 18.1112 4.10521 17.8509 4.20586 17.6081C4.30651 17.3653 4.45402 17.1448 4.63998 16.959L4.69998 16.899C4.93051 16.6633 5.08516 16.364 5.14398 16.0396C5.2028 15.7152 5.16309 15.3806 5.02998 15.079C4.90321 14.7833 4.69273 14.531 4.42444 14.3533C4.15615 14.1757 3.84176 14.0803 3.51998 14.079H3.34998C2.81954 14.079 2.31083 13.8683 1.93576 13.4932C1.56069 13.1182 1.34998 12.6095 1.34998 12.079C1.34998 11.5486 1.56069 11.0399 1.93576 10.6648C2.31083 10.2897 2.81954 10.079 3.34998 10.079H3.43998C3.77097 10.0713 4.09198 9.96414 4.36128 9.77154C4.63057 9.57893 4.83569 9.30976 4.94998 8.99902C5.08309 8.69741 5.1228 8.36283 5.06398 8.03844C5.00516 7.71404 4.85051 7.4147 4.61998 7.17902L4.55998 7.11902C4.37402 6.93328 4.22651 6.7127 4.12586 6.4699C4.02521 6.22711 3.9734 5.96685 3.9734 5.70402C3.9734 5.44119 4.02521 5.18094 4.12586 4.93814C4.22651 4.69535 4.37402 4.47477 4.55998 4.28902C4.74572 4.10307 4.9663 3.95555 5.2091 3.8549C5.45189 3.75426 5.71215 3.70245 5.97498 3.70245C6.23781 3.70245 6.49806 3.75426 6.74086 3.8549C6.98365 3.95555 7.20423 4.10307 7.38998 4.28902L7.44998 4.34902C7.68566 4.57956 7.98499 4.73421 8.30939 4.79303C8.63378 4.85185 8.96836 4.81214 9.26998 4.67902H9.34998C9.64575 4.55226 9.89799 4.34178 10.0757 4.07349C10.2533 3.8052 10.3487 3.49081 10.35 3.16902V2.99902C10.35 2.46859 10.5607 1.95988 10.9358 1.58481C11.3108 1.20974 11.8195 0.999023 12.35 0.999023C12.8804 0.999023 13.3891 1.20974 13.7642 1.58481C14.1393 1.95988 14.35 2.46859 14.35 2.99902V3.08902C14.3513 3.41081 14.4466 3.7252 14.6243 3.99349C14.802 4.26178 15.0542 4.47226 15.35 4.59902C15.6516 4.73214 15.9862 4.77185 16.3106 4.71303C16.635 4.65421 16.9343 4.49956 17.17 4.26902L17.23 4.20902C17.4157 4.02307 17.6363 3.87555 17.8791 3.7749C18.1219 3.67426 18.3821 3.62245 18.645 3.62245C18.9078 3.62245 19.1681 3.67426 19.4109 3.7749C19.6537 3.87555 19.8742 4.02307 20.06 4.20902C20.2459 4.39477 20.3934 4.61535 20.4941 4.85814C20.5947 5.10094 20.6466 5.36119 20.6466 5.62402C20.6466 5.88685 20.5947 6.14711 20.4941 6.3899C20.3934 6.6327 20.2459 6.85328 20.06 7.03902L20 7.09902C19.7694 7.3347 19.6148 7.63404 19.556 7.95844C19.4972 8.28283 19.5369 8.61741 19.67 8.91902V8.99902C19.7967 9.29479 20.0072 9.54704 20.2755 9.72472C20.5438 9.90239 20.8582 9.99774 21.18 9.99902H21.35C21.8804 9.99902 22.3891 10.2097 22.7642 10.5848C23.1393 10.9599 23.35 11.4686 23.35 11.999C23.35 12.5295 23.1393 13.0382 22.7642 13.4132C22.3891 13.7883 21.8804 13.999 21.35 13.999H21.26C20.9382 14.0003 20.6238 14.0957 20.3555 14.2733C20.0872 14.451 19.8767 14.7033 19.75 14.999V14.999Z" stroke="#0447F1" stroke-width="1.99861" stroke-linecap="round" stroke-linejoin="round"/>
</g>
<defs>
<clipPath id="clip0_2546:13137">
<rect width="24" height="24" fill="white" transform="translate(0.350586)"/>
</clipPath>
</defs>
</svg>
