<svg width="48" height="48" viewBox="0 0 48 48" fill="none" xmlns="http://www.w3.org/2000/svg">
<path d="M32.0002 32.0001L24.0002 24.0001L16.0002 32.0001" stroke="#0035A3" stroke-width="3.25" stroke-linecap="round" stroke-linejoin="round"/>
<path d="M24 24.0001V42.0001" stroke="#0035A3" stroke-width="3.25" stroke-linecap="round" stroke-linejoin="round"/>
<path d="M40.7799 36.7801C42.7306 35.7166 44.2716 34.0338 45.1597 31.9973C46.0477 29.9608 46.2323 27.6865 45.6843 25.5334C45.1363 23.3804 43.8869 21.4711 42.1333 20.107C40.3796 18.7428 38.2216 18.0015 35.9999 18.0001H33.4799C32.8746 15.6585 31.7462 13.4847 30.1798 11.642C28.6134 9.79936 26.6496 8.33576 24.4361 7.36127C22.2226 6.38679 19.817 5.92678 17.4002 6.01582C14.9833 6.10487 12.6181 6.74066 10.4823 7.87539C8.34649 9.01012 6.49574 10.6143 5.06916 12.5672C3.64259 14.5202 2.6773 16.7711 2.24588 19.1508C1.81446 21.5306 1.92813 23.9771 2.57835 26.3066C3.22856 28.636 4.3984 30.7878 5.99992 32.6001" stroke="#0035A3" stroke-width="3.25" stroke-linecap="round" stroke-linejoin="round"/>
<path d="M32.0002 32.0001L24.0002 24.0001L16.0002 32.0001" stroke="#0035A3" stroke-width="3.25" stroke-linecap="round" stroke-linejoin="round"/>
</svg>
